<?xml version="1.0" encoding="UTF-8"?>
<svg id="_レイヤー_1" data-name="レイヤー 1" xmlns="http://www.w3.org/2000/svg" viewBox="0 0 609.22 388.41">
  <defs>
    <style>
      .cls-1 {
        fill: #3d4642;
        fill-rule: evenodd;
        stroke-width: 0px;
      }
    </style>
  </defs>
  <path class="cls-1" d="m28.83,259.66c.65,1.27,2.06.46,3.09.3,7.16-1.1,14.62-3.19,21.94-4.49,8.63-1.53,17.31-2.69,26.57-2.69s18.31-.14,26.74,1.79c8.1,1.86,15.21,6.08,22.28,10.17,6.88,3.97,14.32,7.61,21.77,11.07,7.47,3.47,14.9,7.37,22.62,9.57,15.64,4.46,33.49,3.11,49.53.3.86-.15,2.08.15,2.74-1.2-19.01,2.34-35.65,3.94-53.48-1.5-5.36-1.63-10.56-4.39-15.77-6.88-10.53-5.04-20.58-9.87-30.51-15.56-7.93-4.54-15.12-7.57-24.17-8.97-3.07-.48-6.78-.63-9.94-.9-19.27-1.63-38.87,2.12-56.22,6.58-2.41.62-4.95.75-7.2,2.39Z"/>
  <path class="cls-1" d="m370.55,278.91c-34.1,1.68-69.55,2.01-103.79,3.54-5.1-18.87-10.04-37.89-14.68-57.21-13.35-8.36-27.12-17.19-40-25.31-4.39-2.77-9.37-5.04-12.66-9.11,9.38-5.09,22.15-12.23,32.4-17.72,3.71-1.98,9.01-4.96,12.15-5.06,4.64-.15,9.43,3.85,14.18,3.54-.7-4.46-1.66-8.66-2.53-13.16-.84-4.33-2.65-9.41-2.53-13.67.07-2.31,1.41-5.55,2.03-8.1,1.49-6.15,2.73-11.74,4.05-17.21.63-2.63.9-5.84,3.04-7.59,2.14-.36,3.5.41,4.56.51,28.02,2.59,55.23,4.4,82.02,7.59-.06,0,.72.41,1.01.51,4,1.28,9.27,5.45,13.67,8.61,9.05,6.48,17.34,13.23,26.33,19.24,42.28,28.28,81.67,53.62,122.52,81.51,13.44,9.18,26.64,19.35,39.49,28.86,4.16,3.08,9.73,5.51,12.15,10.63-6.46,2.21-13.46,1.7-20.25,2.02-50.54,2.43-102.08,4.79-151.89,7.09m-128.6-163.53c-1.91,10.07-4.64,19.32-6.58,29.37,100.11,36.42,197.15,75.92,292.64,116.95-3-3.93-7.71-5.81-11.64-8.61-4.08-2.9-8.09-6.11-12.15-9.11-24.26-17.89-50.84-33.83-75.94-51.64-24.23-17.2-51.08-32.73-76.45-51.14-3.85-2.79-7.95-6.1-12.15-9.11-4.22-3.03-9.1-7.53-12.66-8.61-2.87-.87-6.99-.65-10.63-1.01-24.58-2.46-49.13-4.76-74.43-7.09Zm-5.57,32.91c-.02,7.79,2.77,17.14,4.05,25.32,47.57,13.58,93.6,28.41,139.23,44.55,45.78,16.2,92.87,28.44,140.24,43.54.97-.44-.55-.3-.51-1.01-93.78-38.02-186.73-76.88-283.02-112.4Zm-52.65,43.04c2.52,3.61,7.03,4.92,10.63,7.09,3.69,2.22,6.98,4.83,10.63,7.09,17.86,11.04,35.82,21.98,55.19,33.42,3.58,2.12,7.29,5.68,10.63,6.58,4.42,1.2,11.02.61,16.71,1.01,81.36,5.7,160.69,10.58,236.95,19.75-25.76-6.74-50.89-15.22-75.94-22.78-25.27-7.63-50.34-14.87-74.93-23.8-49.36-17.92-101.39-32.9-151.38-47.59-13.44,5.8-25.02,13.46-38.48,19.24Zm51.14,36.96c3.5,16.08,8.82,34.73,13.16,51.64,34.42-.68,67.92-2.29,102.27-3.04-1.04-8.08-2.77-15.46-4.05-23.29-19.19-1.35-37.27-2.2-57.72-3.54-6.45-.42-13.5-.05-19.24-1.52-4.67-1.2-11.17-6.27-16.71-9.62-6.89-4.17-12.68-7.43-17.72-10.63Zm115.94,25.82c-2.92-.5-.07,2.87-.51,4.56.14,2.05.87,3.52,1.01,5.57,2.78,1.52,5.19,3.96,8.1,6.08,2.48,1.8,5.81,4.98,8.1,5.57,5.11,1.33,13.08-.25,19.24-.51,43.87-1.83,92.08-4.72,135.69-6.08-6.43-1.44-13.04-1.86-19.75-2.53-47.61-4.79-98.2-9.52-148.85-12.15-1.18-.06-1.2-.76-3.04-.51Zm1.52,15.7c.32,3.23,1.13,4.89,2.03,7.54h10.13c-3.58-3.34-7.44-5.34-12.15-7.54Z"/>
</svg>